<svg xmlns="http://www.w3.org/2000/svg" width="512" height="512" viewBox="0 0 512 512" version="1.1">
	<path d="M 270.745 50.755 L 237 84.511 271.502 119.001 L 306.003 153.492 229.755 229.745 L 153.508 305.997 118.998 271.498 L 84.489 237 50.745 270.755 L 17.002 304.509 64.999 352.499 L 112.996 400.489 88.755 424.745 L 64.514 449.002 96 480.500 L 127.487 511.998 151.741 487.759 L 175.996 463.519 192.003 479.503 L 208.010 495.486 241.751 461.745 L 275.493 428.004 240.748 393.248 L 206.003 358.492 282.254 282.246 L 358.504 206.001 393.252 240.748 L 428 275.496 461.743 241.753 L 495.486 208.010 479.503 192.003 L 463.519 175.996 487.759 151.741 L 511.998 127.487 480.498 95.998 L 448.997 64.509 424.752 88.754 L 400.506 112.999 352.499 64.999 L 304.491 16.998 270.745 50.755" stroke="none" fill="black" fill-rule="evenodd"/>
</svg>