<svg id="Layer_1" enable-background="new 0 0 495.878 495.878" height="512" viewBox="0 0 495.878 495.878" width="512" xmlns="http://www.w3.org/2000/svg"><path d="m483.701 149.929c15.875 15.875 15.875 41.614 0 57.489l-7.12 7.12c-15.894 15.874-41.667 15.832-57.48 0l-51.913-51.914c-3.124-3.124-8.189-3.124-11.313 0l-193.268 193.267c-3.124 3.124-3.124 8.189 0 11.313l51.913 51.914c15.85 15.84 15.85 41.63 0 57.48l-7.13 7.12c-15.829 15.849-41.632 15.858-57.47 0l-4.973-4.973c-3.124-3.124-8.19-3.124-11.314 0l-5.253 5.253c-15.813 15.813-41.593 15.867-57.48 0l-12.535-12.535c-3.124-3.124-8.187-3.125-11.312-.002l-7.733 7.728c-6.228 6.229-16.359 6.251-22.63 0-6.25-6.25-6.25-16.38 0-22.63l7.729-7.723c3.126-3.124 3.127-8.19.002-11.316l-12.541-12.542c-15.84-15.85-15.84-41.63 0-57.48l5.253-5.253c3.124-3.124 3.124-8.189 0-11.313l-4.973-4.973c-15.85-15.84-15.85-41.63 0-57.47l7.12-7.13c15.85-15.85 41.64-15.85 57.48 0l51.913 51.914c3.124 3.124 8.19 3.124 11.314 0l193.266-193.267c3.124-3.124 3.124-8.189 0-11.313l-51.913-51.915c-15.85-15.84-15.85-41.63 0-57.48l7.12-7.12c15.876-15.875 41.615-15.875 57.491.001l4.972 4.972c3.124 3.124 8.189 3.124 11.314 0l5.243-5.243c15.691-15.691 41.236-16.244 58.019.539l12.002 12.002c3.125 3.125 8.192 3.124 11.316-.002l7.623-7.629c6.24-6.25 16.38-6.25 22.62 0 6.25 6.24 6.25 16.38 0 22.62l-7.627 7.633c-3.122 3.125-3.121 8.188.002 11.312l12.535 12.535c15.69 15.69 16.245 41.236-.539 58.02l-4.704 4.704c-3.124 3.124-3.124 8.189 0 11.313z"/></svg>