<?xml version="1.0" encoding="iso-8859-1"?>
<!-- Generator: Adobe Illustrator 19.0.0, SVG Export Plug-In . SVG Version: 6.00 Build 0)  -->
<svg version="1.1" id="Capa_1" xmlns="http://www.w3.org/2000/svg" xmlns:xlink="http://www.w3.org/1999/xlink" x="0px" y="0px"
	 viewBox="0 0 511.999 511.999" style="enable-background:new 0 0 511.999 511.999;" xml:space="preserve">
<g>
	<g>
		<g>
			<path d="M511.308,244.104l-24.909-58.121v-61.009l1.024-0.815c4.49-3.553,7.228-8.873,7.509-14.592
				c0.293-5.696-1.848-11.249-5.888-15.275l-3.072-3.072c-3.735-3.792-8.843-5.915-14.165-5.888h-1.109
				c-5.719,0.281-11.039,3.019-14.592,7.509l-12.288,15.445c-6.035,7.489-5.885,18.214,0.359,25.53
				c6.243,7.316,16.811,9.152,25.156,4.369v47.796l-24.909,58.121c-1.131,2.636-0.862,5.665,0.717,8.06
				c1.579,2.395,4.256,3.837,7.125,3.836h51.2c2.869,0,5.545-1.441,7.124-3.836C512.169,249.768,512.439,246.74,511.308,244.104z
				 M465.208,238.933l12.658-29.538l12.658,29.538H465.208z"/>
			<path d="M118.613,182.869c2.448-2.915,5.395-5.371,8.704-7.253l-41.899-37.803c-1.696,3.396-3.913,6.505-6.571,9.216
				l-0.085,0.085c-1.889,1.838-3.946,3.495-6.144,4.949l41.813,37.547C115.547,187.202,116.951,184.938,118.613,182.869z"/>
			<rect x="281.599" y="332.799" width="17.067" height="17.067"/>
			<rect x="281.599" y="298.666" width="17.067" height="17.067"/>
			<rect x="281.599" y="264.533" width="17.067" height="17.067"/>
			<rect x="281.599" y="230.4" width="17.067" height="17.067"/>
			<path d="M55.893,92.842c-3.553-4.49-8.873-7.228-14.592-7.509h-1.109c-5.322-0.027-10.43,2.096-14.165,5.888l-3.072,3.072
				c-4.04,4.026-6.181,9.578-5.888,15.275c0.282,5.719,3.019,11.039,7.509,14.592l1.024,0.815v61.009L0.691,244.104
				c-1.131,2.636-0.861,5.664,0.718,8.059c1.579,2.395,4.255,3.836,7.124,3.836h51.2c2.869,0,5.545-1.441,7.124-3.836
				c1.579-2.395,1.849-5.423,0.718-8.059l-24.909-58.121v-47.751c3.014,1.727,6.425,2.641,9.899,2.653
				c7.707-0.011,14.726-4.439,18.056-11.389c3.33-6.951,2.381-15.195-2.44-21.208L55.893,92.842z M46.791,238.933H21.474
				l12.658-29.538L46.791,238.933z"/>
			<path d="M162.133,8.533l-12.885,0c-3.77-0.014-7.101,2.45-8.192,6.059l-18.688,62.208h39.765V8.533z"/>
			<path d="M370.943,14.591c-1.091-3.609-4.422-6.073-8.192-6.059l-12.885,0v68.267h39.765L370.943,14.591z"/>
			<path d="M131.925,193.621c-3.411,4.17-4.703,9.682-3.499,14.933l6.827,32.341c0.698,3.723,3.894,6.458,7.68,6.571h19.2v-59.733
				h-18.091C139.315,187.738,134.85,189.907,131.925,193.621z"/>
			<path d="M376.746,240.895l6.827-32.341c1.204-5.251-0.088-10.764-3.499-14.933c-2.925-3.714-7.39-5.883-12.117-5.888h-18.091
				v59.733h19.2C372.852,247.353,376.048,244.618,376.746,240.895z"/>
			<rect x="213.333" y="366.933" width="17.067" height="17.067"/>
			<rect x="213.333" y="401.066" width="17.067" height="17.067"/>
			<path d="M433.151,147.029c-2.657-2.711-4.875-5.82-6.571-9.216l-41.899,37.803c3.309,1.882,6.256,4.338,8.704,7.253
				c1.662,2.07,3.066,4.333,4.181,6.741l41.813-37.547c-2.198-1.454-4.255-3.111-6.144-4.949L433.151,147.029z"/>
			<rect x="213.333" y="332.799" width="17.067" height="17.067"/>
			<rect x="281.599" y="366.933" width="17.067" height="17.067"/>
			<rect x="213.333" y="230.4" width="17.067" height="17.067"/>
			<rect x="281.599" y="401.066" width="17.067" height="17.067"/>
			<rect x="213.333" y="264.533" width="17.067" height="17.067"/>
			<rect x="213.333" y="298.666" width="17.067" height="17.067"/>
			<path d="M409.599,452.266h-76.8V8.533h-153.6v443.733h-76.8c-4.713,0-8.533,3.821-8.533,8.533v34.133
				c0,4.713,3.82,8.533,8.533,8.533h307.2c4.713,0,8.533-3.82,8.533-8.533v-34.133C418.133,456.087,414.312,452.266,409.599,452.266
				z M247.466,418.133c-0.028,9.414-7.653,17.039-17.067,17.067h-17.067c-9.414-0.028-17.039-7.653-17.067-17.067V230.4
				c0.028-9.414,7.652-17.039,17.067-17.067h17.067c9.414,0.028,17.039,7.652,17.067,17.067V418.133z M315.733,418.133
				c-0.028,9.414-7.652,17.039-17.067,17.067h-17.067c-9.414-0.028-17.039-7.653-17.067-17.067V230.4
				c0.028-9.414,7.652-17.039,17.067-17.067h17.067c9.414,0.028,17.039,7.652,17.067,17.067V418.133z"/>
		</g>
	</g>
</g>
<g>
</g>
<g>
</g>
<g>
</g>
<g>
</g>
<g>
</g>
<g>
</g>
<g>
</g>
<g>
</g>
<g>
</g>
<g>
</g>
<g>
</g>
<g>
</g>
<g>
</g>
<g>
</g>
<g>
</g>
</svg>
