<svg id="Capa_1" enable-background="new 0 0 512 512" height="512" viewBox="0 0 512 512" width="512" xmlns="http://www.w3.org/2000/svg"><g><g><path d="m30 145c16.569 0 30 13.431 30 30v65c0 8.284-6.716 15-15 15h-30c-8.284 0-15-6.716-15-15v-65c0-16.569 13.431-30 30-30z"/><path d="m497 255h-30c-8.284 0-15-6.716-15-15v-65c0-16.569 13.431-30 30-30s30 13.431 30 30v65c0 8.284-6.716 15-15 15z"/><path d="m467 116.899v-1.899c0-13.785-11.215-25-25-25h-156v-30h156c30.327 0 55 24.673 55 55v1.899c-4.796-1.239-9.822-1.899-15-1.899s-10.204.66-15 1.899z"/><path d="m70 90c-13.785 0-25 11.215-25 25v1.899c-4.796-1.239-9.822-1.899-15-1.899s-10.204.66-15 1.899v-1.899c0-30.327 24.673-55 55-55h156v30z"/><path d="m75 315c0 8.284-6.716 15-15 15h-30c-8.284 0-15-6.716-15-15v-30h30v15h15c8.284 0 15 6.716 15 15z"/><path d="m497 285v30c0 8.284-6.716 15-15 15h-30c-8.284 0-15-6.716-15-15s6.716-15 15-15h15v-15z"/><path d="m226 90h60v167h-60z"/><path d="m321 287c24.853 0 45 20.147 45 45 0 8.284-6.716 15-15 15h-190c-8.284 0-15-6.716-15-15 0-24.853 20.147-45 45-45z"/><path d="m15 482h211v-60h-15.729l-10.854 21.708c-2.542 5.082-7.735 8.292-13.417 8.292h-35c-8.284 0-15-6.716-15-15s6.716-15 15-15h25.729l10.854-21.708c2.542-5.082 7.735-8.292 13.417-8.292h25v-15h60v15h25c5.682 0 10.875 3.21 13.417 8.292l10.854 21.708h25.729c8.284 0 15 6.716 15 15s-6.716 15-15 15h-35c-5.682 0-10.875-3.21-13.417-8.292l-10.854-21.708h-15.729v60h211c8.284 0 15 6.716 15 15s-6.716 15-15 15h-482c-8.284 0-15-6.716-15-15s6.716-15 15-15z"/></g><path d="m201 0h110c8.284 0 15 6.716 15 15s-6.716 15-15 15h-25v30h-60v-30h-25c-8.284 0-15-6.716-15-15s6.716-15 15-15z"/></g></svg>